<?xml version="1.0" encoding="UTF-8" standalone="no"?>
<!-- Generator: Adobe Illustrator 19.0.0, SVG Export Plug-In . SVG Version: 6.00 Build 0)  -->

<svg
   xmlns:dc="http://purl.org/dc/elements/1.1/"
   xmlns:cc="http://creativecommons.org/ns#"
   xmlns:rdf="http://www.w3.org/1999/02/22-rdf-syntax-ns#"
   xmlns:svg="http://www.w3.org/2000/svg"
   xmlns="http://www.w3.org/2000/svg"
   xmlns:sodipodi="http://sodipodi.sourceforge.net/DTD/sodipodi-0.dtd"
   xmlns:inkscape="http://www.inkscape.org/namespaces/inkscape"
   version="1.1"
   id="Layer_1"
   x="0px"
   y="0px"
   viewBox="0 0 500 500"
   xml:space="preserve"
   inkscape:version="0.91 r13725"
   width="100%"
   height="100%"
   sodipodi:docname="fluxbox-desktop-collection-icon.svg"
   inkscape:export-filename="/home/trlinux/yaliTema/gui/pics/fluxbox-desktop-collection-icon.png"
   inkscape:export-xdpi="5.7600002"
   inkscape:export-ydpi="5.7600002"><metadata
     id="metadata57"><rdf:RDF><cc:Work
         rdf:about=""><dc:format>image/svg+xml</dc:format><dc:type
           rdf:resource="http://purl.org/dc/dcmitype/StillImage" /><dc:title /></cc:Work></rdf:RDF></metadata><defs
     id="defs55" /><sodipodi:namedview
     pagecolor="#ffffff"
     bordercolor="#666666"
     borderopacity="1"
     objecttolerance="10"
     gridtolerance="10"
     guidetolerance="10"
     inkscape:pageopacity="0"
     inkscape:pageshadow="2"
     inkscape:window-width="1366"
     inkscape:window-height="711"
     id="namedview53"
     showgrid="false"
     inkscape:zoom="0.52559509"
     inkscape:cx="483.12638"
     inkscape:cy="395.80421"
     inkscape:window-x="0"
     inkscape:window-y="0"
     inkscape:window-maximized="1"
     inkscape:current-layer="Layer_1" /><g
     id="g23"
     transform="translate(0,39.767)" /><g
     id="g25"
     transform="translate(0,39.767)" /><g
     id="g27"
     transform="translate(0,39.767)" /><g
     id="g29"
     transform="translate(0,39.767)" /><g
     id="g31"
     transform="translate(0,39.767)" /><g
     id="g33"
     transform="translate(0,39.767)" /><g
     id="g35"
     transform="translate(0,39.767)" /><g
     id="g37"
     transform="translate(0,39.767)" /><g
     id="g39"
     transform="translate(0,39.767)" /><g
     id="g41"
     transform="translate(0,39.767)" /><g
     id="g43"
     transform="translate(0,39.767)" /><g
     id="g45"
     transform="translate(0,39.767)" /><g
     id="g47"
     transform="translate(0,39.767)" /><g
     id="g49"
     transform="translate(0,39.767)" /><g
     id="g51"
     transform="translate(0,39.767)" /><path
     style="fill:#ffffff;fill-rule:evenodd;stroke:none;stroke-width:1px;stroke-linecap:butt;stroke-linejoin:miter;stroke-opacity:1"
     d="m 59.077444,405.69204 c 0,0 -18.407686,-19.99439 47.623066,-94.45242 20.6305,-23.2635 91.67541,-73.01951 143.59989,-92.24148 114.26697,-42.30056 236.59089,-43.48424 236.59089,-43.48424 0,0 -147.12278,-12.74699 -268.98878,19.21187 C 169.39058,207.44781 112.19004,241.28094 89.23872,264.41028 8.6317351,345.64241 59.077444,405.69204 59.077444,405.69204 Z"
     id="path3370"
     inkscape:connector-curvature="0"
     sodipodi:nodetypes="csscssc" /><path
     style="fill:#ffffff;fill-rule:evenodd;stroke:none;stroke-width:1px;stroke-linecap:butt;stroke-linejoin:miter;stroke-opacity:1"
     d="m 56.158917,334.75544 c 0,0 -31.612876,-38.80052 -7.143472,-93.65869 24.469403,-54.85817 94.234025,-93.6181 178.586515,-111.91421 84.35249,-18.29611 254.78337,-17.46179 254.78337,-17.46179 0,0 -163.77749,17.95012 -240.49647,47.62306 -76.71897,29.67295 -126.54883,68.44326 -154.774942,102.38959 -28.226115,33.94634 -30.955001,73.02204 -30.955001,73.02204 z"
     id="path4187"
     inkscape:connector-curvature="0"
     sodipodi:nodetypes="czzczzc" /><path
     style="fill:#ffffff;fill-rule:evenodd;stroke:none;stroke-width:1px;stroke-linecap:butt;stroke-linejoin:miter;stroke-opacity:1"
     d="m 11.891281,337.5248 c 0,0 88.155159,73.96732 185.771509,58.93053 97.61634,-15.0368 110.5649,-114.4936 110.5649,-114.4936 0,0 -21.25135,64.1523 -119.5448,84.18648 C 90.389455,386.18238 11.891281,337.5248 11.891281,337.5248 Z"
     id="path4189"
     inkscape:connector-curvature="0"
     sodipodi:nodetypes="czczc" /><path
     style="fill:#ffffff;fill-rule:evenodd;stroke:none;stroke-width:1px;stroke-linecap:butt;stroke-linejoin:miter;stroke-opacity:1"
     d="m 107.30264,330.22865 12.90859,-16.8373 19.08226,1.12249 -12.90859,17.95978 z"
     id="path4191"
     inkscape:connector-curvature="0" /></svg>