<?xml version="1.0" encoding="UTF-8" standalone="no"?>
<!-- Generator: Adobe Illustrator 19.0.0, SVG Export Plug-In . SVG Version: 6.00 Build 0)  -->

<svg
   xmlns:dc="http://purl.org/dc/elements/1.1/"
   xmlns:cc="http://creativecommons.org/ns#"
   xmlns:rdf="http://www.w3.org/1999/02/22-rdf-syntax-ns#"
   xmlns:svg="http://www.w3.org/2000/svg"
   xmlns="http://www.w3.org/2000/svg"
   xmlns:sodipodi="http://sodipodi.sourceforge.net/DTD/sodipodi-0.dtd"
   xmlns:inkscape="http://www.inkscape.org/namespaces/inkscape"
   version="1.1"
   id="Layer_1"
   x="0px"
   y="0px"
   viewBox="-160000 0 0 500"
   xml:space="preserve"
   inkscape:version="0.91 r13725"
   width="320"
   height="280"
   sodipodi:docname="goodbye.svg"
   inkscape:export-filename="/home/trlinux/yaliTema/gui/pics/goodbye.png"
   inkscape:export-xdpi="90"
   inkscape:export-ydpi="90"><metadata
     id="metadata57"><rdf:RDF><cc:Work
         rdf:about=""><dc:format>image/svg+xml</dc:format><dc:type
           rdf:resource="http://purl.org/dc/dcmitype/StillImage" /><dc:title /></cc:Work></rdf:RDF></metadata><defs
     id="defs55" /><sodipodi:namedview
     pagecolor="#ffffff"
     bordercolor="#666666"
     borderopacity="1"
     objecttolerance="10"
     gridtolerance="10"
     guidetolerance="10"
     inkscape:pageopacity="0"
     inkscape:pageshadow="2"
     inkscape:window-width="1366"
     inkscape:window-height="711"
     id="namedview53"
     showgrid="false"
     inkscape:zoom="1.0511902"
     inkscape:cx="284.43506"
     inkscape:cy="101.52725"
     inkscape:window-x="0"
     inkscape:window-y="0"
     inkscape:window-maximized="1"
     inkscape:current-layer="Layer_1" /><g
     id="g23"
     transform="translate(0,-180.233)" /><g
     id="g25"
     transform="translate(0,-180.233)" /><g
     id="g27"
     transform="translate(0,-180.233)" /><g
     id="g29"
     transform="translate(0,-180.233)" /><g
     id="g31"
     transform="translate(0,-180.233)" /><g
     id="g33"
     transform="translate(0,-180.233)" /><g
     id="g35"
     transform="translate(0,-180.233)" /><g
     id="g37"
     transform="translate(0,-180.233)" /><g
     id="g39"
     transform="translate(0,-180.233)" /><g
     id="g41"
     transform="translate(0,-180.233)" /><g
     id="g43"
     transform="translate(0,-180.233)" /><g
     id="g45"
     transform="translate(0,-180.233)" /><g
     id="g47"
     transform="translate(0,-180.233)" /><g
     id="g49"
     transform="translate(0,-180.233)" /><g
     id="g51"
     transform="translate(0,-180.233)" /><path
     style="fill:#ffffff;fill-rule:evenodd;stroke:none;stroke-width:1px;stroke-linecap:butt;stroke-linejoin:miter;stroke-opacity:1"
     d="m 163.86188,237.42921 c 0,0 -19.33677,-23.70606 -33.77124,-35.43603 C 115.65617,190.26321 97.03287,180.8267 97.03287,180.8267 l 42.80862,-26.39865 20.92866,40.66819 c 0,0 19.53596,-41.94203 34.24689,-60.40772 5.59397,-7.02175 14.63675,-19.32045 23.69657,-27.44584 14.76555,-13.242623 29.57638,-21.30842 29.57638,-21.30842 0,0 -3.34648,24.88327 -2.61608,34.48472 0.7304,9.60145 5.23216,22.59344 5.23216,22.59344 0,0 -12.26567,5.14393 -24.73387,15.69649 -12.4682,10.55256 -35.94642,37.59646 -45.90035,51.13252 -9.95393,13.53606 -16.40997,27.58778 -16.40997,27.58778 z"
     id="path4164"
     inkscape:connector-curvature="0"
     sodipodi:nodetypes="czcccssczczzc" /></svg>