<?xml version="1.0" encoding="UTF-8" standalone="no"?>
<!-- Created with Inkscape (http://www.inkscape.org/) -->

<svg
   xmlns:dc="http://purl.org/dc/elements/1.1/"
   xmlns:cc="http://creativecommons.org/ns#"
   xmlns:rdf="http://www.w3.org/1999/02/22-rdf-syntax-ns#"
   xmlns:svg="http://www.w3.org/2000/svg"
   xmlns="http://www.w3.org/2000/svg"
   xmlns:sodipodi="http://sodipodi.sourceforge.net/DTD/sodipodi-0.dtd"
   xmlns:inkscape="http://www.inkscape.org/namespaces/inkscape"
   id="svg2"
   version="1.1"
   inkscape:version="0.91 r13725"
   width="32"
   height="32"
   sodipodi:docname="pisipart.svg"
   inkscape:export-filename="/home/trlinux/yaliTema/gui/pics/pisipart.png"
   inkscape:export-xdpi="90"
   inkscape:export-ydpi="90">
  <metadata
     id="metadata8">
    <rdf:RDF>
      <cc:Work
         rdf:about="">
        <dc:format>image/svg+xml</dc:format>
        <dc:type
           rdf:resource="http://purl.org/dc/dcmitype/StillImage" />
        <dc:title></dc:title>
      </cc:Work>
    </rdf:RDF>
  </metadata>
  <defs
     id="defs6" />
  <sodipodi:namedview
     pagecolor="#ffffff"
     bordercolor="#666666"
     borderopacity="1"
     objecttolerance="10"
     gridtolerance="10"
     guidetolerance="10"
     inkscape:pageopacity="0"
     inkscape:pageshadow="2"
     inkscape:window-width="1366"
     inkscape:window-height="711"
     id="namedview4"
     showgrid="false"
     inkscape:zoom="7.7168646"
     inkscape:cx="4.4487824"
     inkscape:cy="20.007363"
     inkscape:window-x="0"
     inkscape:window-y="0"
     inkscape:window-maximized="1"
     inkscape:current-layer="svg2" />
  <path
     inkscape:connector-curvature="0"
     id="path4218"
     d="m 10.389451,5.8696602 3.763793,5.9374798 0.55435,-0.248001 -1.400481,-7.3817188 -0.627294,0.1896393 1.13789,5.8207615 -3.005198,-4.7558008 z"
     style="fill:#333333;fill-opacity:1;fill-rule:evenodd;stroke:#333333;stroke-width:0.24585789;stroke-linecap:butt;stroke-linejoin:miter;stroke-miterlimit:4;stroke-dasharray:none;stroke-opacity:1" />
  <path
     inkscape:connector-curvature="0"
     id="path4235"
     d="m 13.629319,4.1879802 1.895225,7.1231608 0.627295,-0.07296 0.583539,-7.4108815 -0.627304,-0.058357 -0.42306,5.7040376 -1.488008,-5.5143598 z"
     style="fill:#333333;fill-opacity:1;fill-rule:evenodd;stroke:#333333;stroke-width:0.24585789;stroke-linecap:butt;stroke-linejoin:miter;stroke-miterlimit:4;stroke-dasharray:none;stroke-opacity:1" />
  <path
     style="fill:#333333;fill-opacity:1;fill-rule:evenodd;stroke:#333333;stroke-width:0.24585789;stroke-linecap:butt;stroke-linejoin:miter;stroke-miterlimit:4;stroke-dasharray:none;stroke-opacity:1"
     d="m 28.088839,13.204939 -0.443569,-0.79428 c 2.334744,-1.753638 2.235027,-6.0036388 0.938712,-10.0885588 -2.908977,0.31632 -4.641983,0.94212 -6.684461,2.8057979 L 21.175677,4.5694995 c 2.510697,-2.0213614 4.278672,-2.55732 7.90345,-3.0932795 1.299755,4.4047202 2.08373,8.644401 -0.990288,11.728719 z"
     id="path4201-7"
     inkscape:connector-curvature="0"
     sodipodi:nodetypes="ccccccc" />
  <path
     style="fill:#333333;fill-opacity:1;fill-rule:evenodd;stroke:#333333;stroke-width:0.24585789;stroke-linecap:butt;stroke-linejoin:miter;stroke-miterlimit:4;stroke-dasharray:none;stroke-opacity:1"
     d="m 3.7315805,13.214059 0.4435679,-0.79428 C 1.8404048,10.666141 1.9401213,6.4161402 3.2364363,2.3311788 6.1454134,2.6475402 7.8784205,3.2733402 9.9208898,5.1370181 L 10.644742,4.5786195 C 8.1340448,2.5572195 6.3660663,2.0212602 2.7412927,1.4852986 1.4415427,5.8900602 0.65756128,10.129699 3.7315805,13.214059 Z"
     id="path4201"
     inkscape:connector-curvature="0"
     sodipodi:nodetypes="ccccccc" />
  <path
     style="fill:#ffffff;fill-rule:evenodd;stroke:#000000;stroke-width:0.40000001px;stroke-linecap:butt;stroke-linejoin:miter;stroke-opacity:1"
     d="M 15.855991,29.338564 11.998846,29.124276 7.8559898,26.981419 3.8559905,23.124276 1.3559884,18.338563 l 3.5000014,-7.42857 4.5,-5.0714307 4.4285732,-2.4999992 2.499999,0 4.785717,1.7142842 5.571425,5.2142877 2.928573,6.928569 0.785712,1.857144 -2.285712,3.999998 -3.214287,3.285718 -4.000001,2.357139 z"
     id="path3443"
     inkscape:connector-curvature="0" />
  <path
     style="fill:#333333;fill-opacity:1;fill-rule:evenodd;stroke:#333333;stroke-width:0.24585789;stroke-linecap:butt;stroke-linejoin:miter;stroke-miterlimit:4;stroke-dasharray:none;stroke-opacity:1"
     d="m 1.0912056,18.773059 0.9099507,-0.08024 c 0,0 3.1388135,10.19832 14.0631547,10.095158 10.924346,-0.10316 13.771394,-10.036799 13.771394,-10.036799 0,0 -5.324543,-14.8533598 -13.941446,-14.9363998 C 7.2645577,3.7316595 1.9934163,18.691621 1.9934163,18.691621 l -0.90255,-0.124602 c 0,0 5.21937,-15.7028009 14.8809067,-15.6275188 9.661544,0.075279 14.826761,15.7533208 14.826761,15.7533208 0,0 -3.307002,10.977518 -14.734223,11.08716 C 4.6370948,29.889619 1.0912056,18.773059 1.0912056,18.773059 Z"
     id="path4199"
     inkscape:connector-curvature="0"
     sodipodi:nodetypes="cczcscczczc" />
  <path
     style="fill:#333333;fill-opacity:1;fill-rule:evenodd;stroke:#333333;stroke-width:0.24585789;stroke-linecap:butt;stroke-linejoin:miter;stroke-miterlimit:4;stroke-dasharray:none;stroke-opacity:1"
     d="m 7.9193884,16.562179 c 0,0 2.5340006,-0.728679 3.9276486,0.67512 1.393656,1.403841 0.612107,4.09248 0.612107,4.09248 0,0 -2.6590463,0.607641 -3.9736706,-0.93804 C 7.1708498,18.8461 7.7797777,16.691701 7.7797777,16.691701 l 0.6310707,0.43308 c 0,0 -0.5780786,1.7556 0.5113864,2.943039 1.0894682,1.187439 3.0051962,0.706119 3.0051962,0.706119 0,0 0.646553,-2.078478 -0.466758,-3.161199 -1.113312,-1.08276 -3.0339032,-0.44556 -3.0339032,-0.44556 z"
     id="path4237"
     inkscape:connector-curvature="0"
     sodipodi:nodetypes="czczcczczcc" />
  <path
     style="fill:#333333;fill-opacity:1;stroke:#333333;stroke-width:0.6151365;stroke-linecap:round;stroke-linejoin:round;stroke-miterlimit:4;stroke-dasharray:none;stroke-dashoffset:50;stroke-opacity:1"
     id="path4239"
     sodipodi:type="arc"
     sodipodi:cx="10.596118"
     sodipodi:cy="18.408337"
     sodipodi:rx="1.0979356"
     sodipodi:ry="1.0608073"
     sodipodi:start="0"
     sodipodi:end="6.2784904"
     sodipodi:open="true"
     d="m 11.694054,18.408337 a 1.0979356,1.0608073 0 0 1 -1.096647,1.060806 1.0979356,1.0608073 0 0 1 -1.0992216,-1.058316 1.0979356,1.0608073 0 0 1 1.0940666,-1.063291 1.0979356,1.0608073 0 0 1 1.101789,1.05582" />
  <path
     style="fill:#333333;fill-opacity:1;fill-rule:evenodd;stroke:#333333;stroke-width:0.24585789;stroke-linecap:butt;stroke-linejoin:miter;stroke-miterlimit:4;stroke-dasharray:none;stroke-opacity:1"
     d="m 23.994357,16.46746 c 0,0 -2.533995,-0.728679 -3.927656,0.67512 -1.393657,1.403841 -0.612102,4.092441 -0.612102,4.092441 0,0 2.65905,0.60768 3.973673,-0.937962 1.314618,-1.545678 0.705693,-3.70008 0.705693,-3.70008 l -0.631071,0.433041 c 0,0 0.578076,1.755639 -0.511389,2.94312 -1.089468,1.187439 -3.005196,0.70608 -3.005196,0.70608 0,0 -0.64656,-2.078481 0.466755,-3.161199 1.113322,-1.08276 3.033913,-0.44556 3.033913,-0.44556 z"
     id="path4237-7"
     inkscape:connector-curvature="0"
     sodipodi:nodetypes="czczcczczcc" />
  <path
     style="fill:#333333;fill-opacity:1;stroke:#333333;stroke-width:0.6151365;stroke-linecap:round;stroke-linejoin:round;stroke-miterlimit:4;stroke-dasharray:none;stroke-dashoffset:50;stroke-opacity:1"
     id="path4239-2"
     sodipodi:type="arc"
     sodipodi:cx="-21.317636"
     sodipodi:cy="18.313618"
     sodipodi:rx="1.0979356"
     sodipodi:ry="1.0608073"
     sodipodi:start="0"
     sodipodi:end="6.2784904"
     sodipodi:open="true"
     d="m -20.219701,18.313618 a 1.0979356,1.0608073 0 0 1 -1.096647,1.060806 1.0979356,1.0608073 0 0 1 -1.099221,-1.058316 1.0979356,1.0608073 0 0 1 1.094066,-1.063291 1.0979356,1.0608073 0 0 1 1.10179,1.05582"
     transform="scale(-1,1)" />
  <path
     style="fill:#333333;fill-opacity:1;fill-rule:evenodd;stroke:#333333;stroke-width:0.24585789;stroke-linecap:butt;stroke-linejoin:miter;stroke-miterlimit:4;stroke-dasharray:none;stroke-opacity:1"
     d="m 13.317084,23.213821 c 0,0 1.40556,-0.389922 2.503507,-0.39252 1.097955,-0.004 2.67324,0.403158 2.67324,0.403158 l -1.904157,2.31648 c -0.201408,0.24512 -0.2431,0.174162 -0.364645,0.2586 l -0.004,1.176162 -0.60069,-0.004 -9.28e-4,-1.17088 c -0.1242,-0.08752 -0.194346,-0.0528 -0.372606,-0.26244 z"
     id="path4265"
     inkscape:connector-curvature="0"
     sodipodi:nodetypes="czcccccccc" />
  <path
     style="fill:#333333;fill-opacity:1;fill-rule:evenodd;stroke:#333333;stroke-width:0.24585789;stroke-linecap:butt;stroke-linejoin:miter;stroke-miterlimit:4;stroke-dasharray:none;stroke-opacity:1"
     d="m 11.161453,23.976301 c -0.111831,-0.142842 -0.233832,-0.08092 -0.233832,-0.08092 l -7.8059919,6.06476 c 0,0 -0.1425928,0.140002 -0.040607,0.277402 0.1019764,0.137358 0.2956471,0.077 0.2956471,0.077 l 7.8010798,-6.098358 c 0,0 0.09553,-0.097 -0.01629,-0.23988 z"
     id="path4267"
     inkscape:connector-curvature="0"
     sodipodi:nodetypes="zcczccz" />
  <path
     style="fill:#333333;fill-opacity:1;fill-rule:evenodd;stroke:#333333;stroke-width:0.24585789;stroke-linecap:butt;stroke-linejoin:miter;stroke-miterlimit:4;stroke-dasharray:none;stroke-opacity:1"
     d="m 12.818137,24.286021 c -0.111828,-0.142842 -0.233826,-0.08088 -0.233826,-0.08088 l -7.8059976,6.06468 c 0,0 -0.1425864,0.14004 -0.040607,0.277398 0.1019792,0.1374 0.2956471,0.07704 0.2956471,0.07704 L 12.83443,24.525901 c 0,0 0.09553,-0.097 -0.01629,-0.23988 z"
     id="path4267-8"
     inkscape:connector-curvature="0"
     sodipodi:nodetypes="zcczccz" />
  <path
     style="fill:#333333;fill-opacity:1;fill-rule:evenodd;stroke:#333333;stroke-width:0.24585789;stroke-linecap:butt;stroke-linejoin:miter;stroke-miterlimit:4;stroke-dasharray:none;stroke-opacity:1"
     d="m 20.606119,23.982619 c 0.11183,-0.14284 0.233835,-0.08088 0.233835,-0.08088 l 7.805988,6.064722 c 0,0 0.142595,0.139998 0.04058,0.277398 -0.101973,0.1374 -0.295643,0.07704 -0.295643,0.07704 l -7.801085,-6.098358 c 0,0 -0.09553,-0.09704 0.01629,-0.239922 z"
     id="path4267-1"
     inkscape:connector-curvature="0"
     sodipodi:nodetypes="zcczccz" />
  <path
     style="fill:#333333;fill-opacity:1;fill-rule:evenodd;stroke:#333333;stroke-width:0.24585789;stroke-linecap:butt;stroke-linejoin:miter;stroke-miterlimit:4;stroke-dasharray:none;stroke-opacity:1"
     d="m 18.949434,24.292381 c 0.111823,-0.142842 0.233827,-0.08092 0.233827,-0.08092 l 7.805996,6.064722 c 0,0 0.142593,0.14004 0.04064,0.277398 -0.101976,0.13736 -0.295644,0.077 -0.295644,0.077 l -7.801099,-6.09836 c 0,0 -0.09553,-0.09696 0.01629,-0.239838 z"
     id="path4267-8-2"
     inkscape:connector-curvature="0"
     sodipodi:nodetypes="zcczccz" />
  <path
     style="fill:#333333;fill-opacity:1;fill-rule:evenodd;stroke:none;stroke-width:1px;stroke-linecap:butt;stroke-linejoin:miter;stroke-opacity:1"
     d="M 4.201327,12.913387 7.1307698,8.5192243 10.363258,5.1857202 7.6358462,2.8623674 2.9386327,1.8017086 1.8274656,8.1151628 2.8376227,11.650696 Z"
     id="path3439"
     inkscape:connector-curvature="0" />
  <path
     style="fill:#333333;fill-opacity:1;fill-rule:evenodd;stroke:none;stroke-width:1px;stroke-linecap:butt;stroke-linejoin:miter;stroke-opacity:1"
     d="M 27.61161,13.115419 24.682164,8.7212557 21.449677,5.3877523 24.17709,3.0643995 28.874302,2.0037402 29.985468,8.317195 28.975314,11.852728 Z"
     id="path3439-3"
     inkscape:connector-curvature="0" />
  <path
     style="fill:#333333;fill-opacity:1;fill-rule:evenodd;stroke:none;stroke-width:1px;stroke-linecap:butt;stroke-linejoin:miter;stroke-opacity:1"
     d="M 14.177419,10.767136 10.641706,5.5171359 12.855991,4.1599902 Z"
     id="path4256"
     inkscape:connector-curvature="0" />
  <path
     style="fill:#333333;fill-opacity:1;fill-rule:evenodd;stroke:none;stroke-width:1px;stroke-linecap:butt;stroke-linejoin:miter;stroke-opacity:1"
     d="m 15.851614,10.179472 -1.645023,-6.1120918 2.534453,-0.56694 z"
     id="path4256-6"
     inkscape:connector-curvature="0" />
</svg>
