<?xml version="1.0" encoding="UTF-8" standalone="no"?>
<!-- Created with Inkscape (http://www.inkscape.org/) -->

<svg
   xmlns:dc="http://purl.org/dc/elements/1.1/"
   xmlns:cc="http://creativecommons.org/ns#"
   xmlns:rdf="http://www.w3.org/1999/02/22-rdf-syntax-ns#"
   xmlns:svg="http://www.w3.org/2000/svg"
   xmlns="http://www.w3.org/2000/svg"
   xmlns:sodipodi="http://sodipodi.sourceforge.net/DTD/sodipodi-0.dtd"
   xmlns:inkscape="http://www.inkscape.org/namespaces/inkscape"
   id="svg2"
   version="1.1"
   inkscape:version="0.91 r13725"
   width="43"
   height="44"
   sodipodi:docname="pisi.svg"
   inkscape:export-filename="/home/trlinux/yaliTema/gui/pics/pisi.png"
   inkscape:export-xdpi="90"
   inkscape:export-ydpi="90">
  <metadata
     id="metadata8">
    <rdf:RDF>
      <cc:Work
         rdf:about="">
        <dc:format>image/svg+xml</dc:format>
        <dc:type
           rdf:resource="http://purl.org/dc/dcmitype/StillImage" />
        <dc:title></dc:title>
      </cc:Work>
    </rdf:RDF>
  </metadata>
  <defs
     id="defs6" />
  <sodipodi:namedview
     pagecolor="#ffffff"
     bordercolor="#666666"
     borderopacity="1"
     objecttolerance="10"
     gridtolerance="10"
     guidetolerance="10"
     inkscape:pageopacity="0"
     inkscape:pageshadow="2"
     inkscape:window-width="1366"
     inkscape:window-height="711"
     id="namedview4"
     showgrid="false"
     inkscape:zoom="7.7168646"
     inkscape:cx="24.405074"
     inkscape:cy="20.007363"
     inkscape:window-x="0"
     inkscape:window-y="0"
     inkscape:window-maximized="1"
     inkscape:current-layer="svg2" />
  <path
     inkscape:connector-curvature="0"
     id="path4218"
     d="m 13.915091,7.5220823 5.269311,8.3124717 0.776089,-0.347201 -1.960673,-10.3344067 -0.878212,0.265495 1.593047,8.1490657 -4.207278,-6.6581207 z"
     style="fill:#333333;fill-opacity:1;fill-rule:evenodd;stroke:#333333;stroke-width:0.34420106;stroke-linecap:butt;stroke-linejoin:miter;stroke-miterlimit:4;stroke-dasharray:none;stroke-opacity:1" />
  <path
     inkscape:connector-curvature="0"
     id="path4235"
     d="m 18.450906,5.1677303 2.653316,9.9724247 0.878212,-0.102144 0.816955,-10.3752337 -0.878225,-0.0817 L 21.32888,12.56673 19.245668,4.8466263 Z"
     style="fill:#333333;fill-opacity:1;fill-rule:evenodd;stroke:#333333;stroke-width:0.34420106;stroke-linecap:butt;stroke-linejoin:miter;stroke-miterlimit:4;stroke-dasharray:none;stroke-opacity:1" />
  <path
     style="fill:#333333;fill-opacity:1;fill-rule:evenodd;stroke:#333333;stroke-width:0.34420106;stroke-linecap:butt;stroke-linejoin:miter;stroke-miterlimit:4;stroke-dasharray:none;stroke-opacity:1"
     d="m 38.694234,17.791473 -0.620996,-1.111992 c 3.268642,-2.455094 3.129038,-8.4050947 1.314197,-14.1239827 -4.072568,0.442848 -6.498777,1.318968 -9.358246,3.928117 l -1.013381,-0.781758 c 3.514976,-2.829906 5.990141,-3.580248 11.064829,-4.330591 1.819658,6.166608 2.917223,12.1021607 -1.386403,16.4202067 z"
     id="path4201-7"
     inkscape:connector-curvature="0"
     sodipodi:nodetypes="ccccccc" />
  <path
     style="fill:#333333;fill-opacity:1;fill-rule:evenodd;stroke:#333333;stroke-width:0.34420106;stroke-linecap:butt;stroke-linejoin:miter;stroke-miterlimit:4;stroke-dasharray:none;stroke-opacity:1"
     d="M 4.594073,17.804241 5.215068,16.692249 C 1.946427,14.237155 2.08603,8.2871543 3.900871,2.5682083 c 4.072568,0.442906 6.498778,1.319026 9.358235,3.928175 l 1.013392,-0.781758 C 10.757523,2.8846653 8.282353,2.1343223 3.20767,1.3839763 1.38802,7.5506423 0.29044599,13.486137 4.594073,17.804241 Z"
     id="path4201"
     inkscape:connector-curvature="0"
     sodipodi:nodetypes="ccccccc" />
  <path
     style="fill:#ffffff;fill-rule:evenodd;stroke:#000000;stroke-width:0.56px;stroke-linecap:butt;stroke-linejoin:miter;stroke-opacity:1"
     d="M 21.568247,40.378547 16.168244,40.078545 10.368246,37.078544 4.768247,31.678545 1.268244,24.978546 6.168246,14.578548 l 6.3,-7.1000027 6.200002,-3.499999 3.499998,0 6.700004,2.399998 7.799996,7.3000027 4.100002,9.699996 1.099997,2.600002 -3.199997,5.599998 -4.500002,4.600004 -5.600002,3.299995 z"
     id="path3443"
     inkscape:connector-curvature="0" />
  <path
     style="fill:#333333;fill-opacity:1;fill-rule:evenodd;stroke:#333333;stroke-width:0.34420106;stroke-linecap:butt;stroke-linejoin:miter;stroke-miterlimit:4;stroke-dasharray:none;stroke-opacity:1"
     d="M 0.89754799,25.58684 2.171479,25.474507 c 0,0 4.394339,14.277648 19.688416,14.133222 C 37.15398,39.463304 41.139847,25.55621 41.139847,25.55621 c 0,0 -7.454361,-20.7947037 -19.518025,-20.9109597 C 9.540241,4.5288813 2.160643,25.472827 2.160643,25.472827 L 0.89707299,25.298384 c 0,0 7.30711801,-21.9839207 20.83326901,-21.8785257 13.526162,0.105391 20.757466,22.0546487 20.757466,22.0546487 0,0 -4.629803,15.368526 -20.627913,15.522024 C 5.861793,41.150024 0.89754799,25.58684 0.89754799,25.58684 Z"
     id="path4199"
     inkscape:connector-curvature="0"
     sodipodi:nodetypes="cczcscczczc" />
  <path
     style="fill:#333333;fill-opacity:1;fill-rule:evenodd;stroke:#333333;stroke-width:0.34420106;stroke-linecap:butt;stroke-linejoin:miter;stroke-miterlimit:4;stroke-dasharray:none;stroke-opacity:1"
     d="m 10.457004,22.491608 c 0,0 3.547601,-1.02015 5.498707,0.945168 1.951119,1.965378 0.856951,5.729472 0.856951,5.729472 0,0 -3.722665,0.850698 -5.563139,-1.313256 -1.840473,-2.163894 -0.987974,-5.180053 -0.987974,-5.180053 l 0.883499,0.606312 c 0,0 -0.80931,2.45784 0.715941,4.120255 1.525255,1.662414 4.207274,0.988566 4.207274,0.988566 0,0 0.905175,-2.909869 -0.653461,-4.425678 C 13.856165,22.44653 11.167338,23.33861 11.167338,23.33861 Z"
     id="path4237"
     inkscape:connector-curvature="0"
     sodipodi:nodetypes="czczcczczcc" />
  <path
     style="fill:#333333;fill-opacity:1;stroke:#333333;stroke-width:0.86119109;stroke-linecap:round;stroke-linejoin:round;stroke-miterlimit:4;stroke-dasharray:none;stroke-dashoffset:50;stroke-opacity:1"
     id="path4239"
     sodipodi:type="arc"
     sodipodi:cx="14.204426"
     sodipodi:cy="25.076229"
     sodipodi:rx="1.5371097"
     sodipodi:ry="1.4851303"
     sodipodi:start="0"
     sodipodi:end="6.2784904"
     sodipodi:open="true"
     d="m 15.741536,25.076229 a 1.5371097,1.4851303 0 0 1 -1.535306,1.485129 1.5371097,1.4851303 0 0 1 -1.53891,-1.481643 1.5371097,1.4851303 0 0 1 1.531693,-1.488607 1.5371097,1.4851303 0 0 1 1.542506,1.478149" />
  <path
     style="fill:#333333;fill-opacity:1;fill-rule:evenodd;stroke:#333333;stroke-width:0.34420106;stroke-linecap:butt;stroke-linejoin:miter;stroke-miterlimit:4;stroke-dasharray:none;stroke-opacity:1"
     d="m 32.96196,22.359002 c 0,0 -3.547593,-1.020151 -5.498719,0.945168 -1.951119,1.965377 -0.856943,5.729417 -0.856943,5.729417 0,0 3.72267,0.850752 5.563143,-1.313147 1.840465,-2.163949 0.98797,-5.180112 0.98797,-5.180112 l -0.883499,0.606258 c 0,0 0.809306,2.457894 -0.715945,4.120368 -1.525255,1.662414 -4.207274,0.988512 -4.207274,0.988512 0,0 -0.905184,-2.909874 0.653457,-4.425679 1.55865,-1.515864 4.247477,-0.623784 4.247477,-0.623784 z"
     id="path4237-7"
     inkscape:connector-curvature="0"
     sodipodi:nodetypes="czczcczczcc" />
  <path
     style="fill:#333333;fill-opacity:1;stroke:#333333;stroke-width:0.86119109;stroke-linecap:round;stroke-linejoin:round;stroke-miterlimit:4;stroke-dasharray:none;stroke-dashoffset:50;stroke-opacity:1"
     id="path4239-2"
     sodipodi:type="arc"
     sodipodi:cx="-29.214552"
     sodipodi:cy="24.943623"
     sodipodi:rx="1.5371097"
     sodipodi:ry="1.4851303"
     sodipodi:start="0"
     sodipodi:end="6.2784904"
     sodipodi:open="true"
     d="m -27.677442,24.943623 a 1.5371097,1.4851303 0 0 1 -1.535306,1.485129 1.5371097,1.4851303 0 0 1 -1.538909,-1.481643 1.5371097,1.4851303 0 0 1 1.531693,-1.488608 1.5371097,1.4851303 0 0 1 1.542505,1.478149"
     transform="scale(-1,1)" />
  <path
     style="fill:#333333;fill-opacity:1;fill-rule:evenodd;stroke:#333333;stroke-width:0.34420106;stroke-linecap:butt;stroke-linejoin:miter;stroke-miterlimit:4;stroke-dasharray:none;stroke-opacity:1"
     d="m 18.013778,31.803907 c 0,0 1.967784,-0.545891 3.504909,-0.549528 1.537137,-0.0056 3.742536,0.564421 3.742536,0.564421 l -2.66582,3.243072 c -0.281971,0.343169 -0.340339,0.243827 -0.510502,0.36204 l -0.0056,1.646627 -0.840966,-0.0056 -0.0013,-1.639231 c -0.17388,-0.122526 -0.272084,-0.07392 -0.521648,-0.367416 z"
     id="path4265"
     inkscape:connector-curvature="0"
     sodipodi:nodetypes="czcccccccc" />
  <path
     style="fill:#333333;fill-opacity:1;fill-rule:evenodd;stroke:#333333;stroke-width:0.34420106;stroke-linecap:butt;stroke-linejoin:miter;stroke-miterlimit:4;stroke-dasharray:none;stroke-opacity:1"
     d="M 14.995894,32.871379 C 14.83933,32.6714 14.668529,32.758088 14.668529,32.758088 L 3.740141,41.248753 c 0,0 -0.19963,0.196002 -0.05685,0.388362 0.142767,0.192301 0.413906,0.107797 0.413906,0.107797 l 10.921512,-8.537701 c 0,0 0.133741,-0.135803 -0.02281,-0.335832 z"
     id="path4267"
     inkscape:connector-curvature="0"
     sodipodi:nodetypes="zcczccz" />
  <path
     style="fill:#333333;fill-opacity:1;fill-rule:evenodd;stroke:#333333;stroke-width:0.34420106;stroke-linecap:butt;stroke-linejoin:miter;stroke-miterlimit:4;stroke-dasharray:none;stroke-opacity:1"
     d="M 17.315251,33.304987 C 17.158692,33.105008 16.987895,33.191755 16.987895,33.191755 L 6.059499,41.682307 c 0,0 -0.199621,0.196056 -0.05685,0.388357 0.142771,0.19236 0.413906,0.107856 0.413906,0.107856 l 10.921507,-8.537701 c 0,0 0.133749,-0.135803 -0.02281,-0.335832 z"
     id="path4267-8"
     inkscape:connector-curvature="0"
     sodipodi:nodetypes="zcczccz" />
  <path
     style="fill:#333333;fill-opacity:1;fill-rule:evenodd;stroke:#333333;stroke-width:0.34420106;stroke-linecap:butt;stroke-linejoin:miter;stroke-miterlimit:4;stroke-dasharray:none;stroke-opacity:1"
     d="m 28.218426,32.880224 c 0.156563,-0.199975 0.327369,-0.113232 0.327369,-0.113232 l 10.928383,8.490611 c 0,0 0.199634,0.195997 0.05681,0.388357 -0.142762,0.19236 -0.413901,0.107856 -0.413901,0.107856 L 28.195569,33.216115 c 0,0 -0.133744,-0.135858 0.02281,-0.335891 z"
     id="path4267-1"
     inkscape:connector-curvature="0"
     sodipodi:nodetypes="zcczccz" />
  <path
     style="fill:#333333;fill-opacity:1;fill-rule:evenodd;stroke:#333333;stroke-width:0.34420106;stroke-linecap:butt;stroke-linejoin:miter;stroke-miterlimit:4;stroke-dasharray:none;stroke-opacity:1"
     d="M 25.899068,33.313891 C 26.055619,33.113912 26.226425,33.2006 26.226425,33.2006 l 10.928395,8.490611 c 0,0 0.19963,0.196056 0.0569,0.388357 -0.142767,0.192305 -0.413902,0.107801 -0.413902,0.107801 L 25.876279,33.649664 c 0,0 -0.133745,-0.135744 0.02281,-0.335773 z"
     id="path4267-8-2"
     inkscape:connector-curvature="0"
     sodipodi:nodetypes="zcczccz" />
  <path
     style="fill:#333333;fill-opacity:1;fill-rule:evenodd;stroke:none;stroke-width:1px;stroke-linecap:butt;stroke-linejoin:miter;stroke-opacity:1"
     d="m 5.251718,17.3833 4.10122,-6.151828 4.525483,-4.6669057 -3.818376,-3.252694 -6.576099,-1.484922 -1.555634,8.8388357 1.41422,4.949746 z"
     id="path3439"
     inkscape:connector-curvature="0" />
  <path
     style="fill:#333333;fill-opacity:1;fill-rule:evenodd;stroke:none;stroke-width:1px;stroke-linecap:butt;stroke-linejoin:miter;stroke-opacity:1"
     d="M 38.026114,17.666145 33.92489,11.514316 29.399407,6.8474113 33.217786,3.5947173 39.793882,2.1097943 41.349515,10.948631 39.9353,15.898377 Z"
     id="path3439-3"
     inkscape:connector-curvature="0" />
  <path
     style="fill:#333333;fill-opacity:1;fill-rule:evenodd;stroke:none;stroke-width:1px;stroke-linecap:butt;stroke-linejoin:miter;stroke-opacity:1"
     d="M 19.218246,14.378548 14.268248,7.0285483 17.368247,5.1285443 Z"
     id="path4256"
     inkscape:connector-curvature="0" />
  <path
     style="fill:#333333;fill-opacity:1;fill-rule:evenodd;stroke:none;stroke-width:1px;stroke-linecap:butt;stroke-linejoin:miter;stroke-opacity:1"
     d="M 21.562119,13.555819 19.259087,4.9988903 22.807322,4.2051743 Z"
     id="path4256-6"
     inkscape:connector-curvature="0" />
</svg>
