<?xml version="1.0" encoding="UTF-8" standalone="no"?>
<svg
   xmlns:dc="http://purl.org/dc/elements/1.1/"
   xmlns:cc="http://creativecommons.org/ns#"
   xmlns:rdf="http://www.w3.org/1999/02/22-rdf-syntax-ns#"
   xmlns:svg="http://www.w3.org/2000/svg"
   xmlns="http://www.w3.org/2000/svg"
   xmlns:sodipodi="http://sodipodi.sourceforge.net/DTD/sodipodi-0.dtd"
   xmlns:inkscape="http://www.inkscape.org/namespaces/inkscape"
   viewBox="0 0 319.99999 302.99999"
   height="303"
   width="320"
   version="1.1"
   id="svg2"
   inkscape:version="0.91 r13725"
   sodipodi:docname="welcome.svg"
   inkscape:export-filename="/home/trlinux/yali-theme-pisilinux/gui/pics/welcome.png"
   inkscape:export-xdpi="90"
   inkscape:export-ydpi="90">
  <sodipodi:namedview
     pagecolor="#ffffff"
     bordercolor="#666666"
     borderopacity="1"
     objecttolerance="10"
     gridtolerance="10"
     guidetolerance="10"
     inkscape:pageopacity="0"
     inkscape:pageshadow="2"
     inkscape:window-width="1366"
     inkscape:window-height="718"
     id="namedview18"
     showgrid="false"
     inkscape:zoom="1.1490485"
     inkscape:cx="112.84717"
     inkscape:cy="235.45908"
     inkscape:window-x="0"
     inkscape:window-y="0"
     inkscape:window-maximized="1"
     inkscape:current-layer="svg2" />
  <metadata
     id="metadata8">
    <rdf:RDF>
      <cc:Work
         rdf:about="">
        <dc:format>image/svg+xml</dc:format>
        <dc:type
           rdf:resource="http://purl.org/dc/dcmitype/StillImage" />
        <dc:title></dc:title>
      </cc:Work>
    </rdf:RDF>
  </metadata>
  <defs
     id="defs6">
    <filter
       height="1.096"
       y="-0.048"
       width="1.096"
       x="-0.048"
       id="filter4329"
       style="color-interpolation-filters:sRGB">
      <feGaussianBlur
         id="feGaussianBlur4331"
         stdDeviation="2.1324205" />
    </filter>
    <filter
       height="1.0327445"
       y="-0.016372267"
       width="1.0399742"
       x="-0.019987123"
       id="filter4376"
       style="color-interpolation-filters:sRGB">
      <feGaussianBlur
         id="feGaussianBlur4378"
         stdDeviation="1.1736058" />
    </filter>
    <filter
       height="1.0570984"
       y="-0.0285492"
       width="1.0632123"
       x="-0.031606145"
       id="filter4436"
       style="color-interpolation-filters:sRGB">
      <feGaussianBlur
         id="feGaussianBlur4438"
         stdDeviation="0.63519096" />
    </filter>
  </defs>
  <g
     id="g3404"
     transform="matrix(0,0.68618433,-0.68618433,0,181.59819,-15.254212)">
    <rect
       rx="28.399258"
       ry="32.089348"
       y="-171.99995"
       x="67.83326"
       height="405.81046"
       width="343.78052"
       id="rect3003"
       style="fill:#a05a2c;fill-opacity:1;stroke:none" />
    <path
       sodipodi:nodetypes="cccczcczcccczc"
       inkscape:connector-curvature="0"
       id="path3773"
       d="m 86.236788,-158.27756 c -2.42733,2.98495 -2.040117,6.92611 -2.040117,6.92611 l 0.07141,337.35512 0.0049,24.7324 c 0,0 -0.159335,3.86824 1.636533,5.88529 1.796014,2.01704 6.072113,2.20625 6.072113,2.20625 l 296.184133,-0.0146 c 0,0 4.96133,0.27252 7.19284,-1.68205 2.23152,-1.95453 2.03624,-6.29883 2.03624,-6.29883 L 396.66642,-60.04825 296.14803,-160.41372 92.68256,-160.78193 c 0,0 -4.018734,-0.47801 -6.446015,2.5067 z"
       style="fill:#ffffff;stroke:none" />
    <path
       sodipodi:nodetypes="czzczzcc"
       inkscape:connector-curvature="0"
       id="path3775"
       d="m 295.95887,-160.52787 c 0,0 7.5823,11.84392 11.21022,23.35469 3.62793,11.51077 4.12935,31.71073 4.1104,42.59888 -0.0194,10.88815 -2.24205,22.42045 -2.24205,22.42045 0,0 19.8073,-2.38706 33.07022,-0.9342 13.26288,1.45286 23.976,3.40782 33.44384,6.16567 9.46789,2.75781 21.67313,7.47344 21.67313,7.47344 z"
       style="fill:#cccccc;stroke:none" />
    <circle
       r="17.002188"
       id="path3777"
       style="fill:#394050;fill-opacity:1;stroke:none"
       cx="109.64014"
       cy="-126.26696" />
    <path
       sodipodi:nodetypes="cczcczc"
       inkscape:connector-curvature="0"
       id="path3779"
       d="m 48.597345,-115.61728 61.656245,0 c 0,0 9.06775,-0.78282 8.8748,-9.71558 -0.19285,-8.93271 -9.34187,-10.08915 -9.34187,-10.08915 l -61.936543,0.37357 c 0,0 -8.022652,1.73645 -7.847141,10.08919 0.175365,8.35274 8.594509,9.34207 8.594509,9.34207 z"
       style="fill:#cccccc;stroke:none" />
    <circle
       r="17.002188"
       id="path3777-3"
       style="fill:#394050;fill-opacity:1;stroke:none"
       cx="110.03224"
       cy="-82.68486" />
    <path
       sodipodi:nodetypes="cczcczc"
       inkscape:connector-curvature="0"
       id="path3779-6"
       d="m 48.989367,-72.03518 61.656243,0 c 0,0 9.06776,-0.78283 8.87481,-9.71558 -0.19286,-8.93271 -9.34188,-10.08915 -9.34188,-10.08915 l -61.936541,0.37356 c 0,0 -8.022652,1.73646 -7.847141,10.0892 0.175365,8.35274 8.594509,9.34207 8.594509,9.34207 z"
       style="fill:#cccccc;stroke:none" />
    <circle
       r="17.002188"
       id="path3777-7"
       style="fill:#394050;fill-opacity:1;stroke:none"
       cx="110.36464"
       cy="-39.475967" />
    <path
       sodipodi:nodetypes="cczcczc"
       inkscape:connector-curvature="0"
       id="path3779-5"
       d="m 49.321784,-28.82626 61.656246,0 c 0,0 9.06775,-0.78283 8.8748,-9.71558 -0.19285,-8.93271 -9.34187,-10.08915 -9.34187,-10.08915 l -61.936544,0.37357 c 0,0 -8.022652,1.73645 -7.847141,10.08919 0.175365,8.35274 8.594509,9.34207 8.594509,9.34207 z"
       style="fill:#cccccc;stroke:none" />
    <circle
       r="17.002188"
       id="path3777-3-3"
       style="fill:#394050;fill-opacity:1;stroke:none"
       cx="110.75674"
       cy="4.1062469" />
    <path
       sodipodi:nodetypes="cczcczc"
       inkscape:connector-curvature="0"
       id="path3779-6-5"
       d="m 49.713806,14.75584 61.656244,0 c 0,0 9.06776,-0.78283 8.8748,-9.71558 -0.19285,-8.93271 -9.34187,-10.08915 -9.34187,-10.08915 l -61.936542,0.37356 c 0,0 -8.022652,1.73646 -7.847141,10.0892 0.175365,8.35273 8.594509,9.34207 8.594509,9.34207 z"
       style="fill:#cccccc;stroke:none" />
    <circle
       r="17.002188"
       id="path3777-6"
       style="fill:#394050;fill-opacity:1;stroke:none"
       cx="110.56414"
       cy="47.590851" />
    <path
       sodipodi:nodetypes="cczcczc"
       inkscape:connector-curvature="0"
       id="path3779-2"
       d="m 49.521244,58.24054 61.656246,0 c 0,0 9.06775,-0.78283 8.8748,-9.71559 -0.19285,-8.9327 -9.34187,-10.08914 -9.34187,-10.08914 l -61.936544,0.37356 c 0,0 -8.022652,1.73646 -7.847141,10.08919 0.175365,8.35274 8.594509,9.34208 8.594509,9.34208 z"
       style="fill:#cccccc;stroke:none" />
    <circle
       r="17.002188"
       id="path3777-3-9"
       style="fill:#394050;fill-opacity:1;stroke:none"
       cx="110.95624"
       cy="91.173035" />
    <path
       sodipodi:nodetypes="cczcczc"
       inkscape:connector-curvature="0"
       id="path3779-6-1"
       d="m 49.913265,101.82263 61.656245,0 c 0,0 9.06776,-0.78283 8.8748,-9.71558 -0.19285,-8.93271 -9.34187,-10.08915 -9.34187,-10.08915 l -61.936542,0.37357 c 0,0 -8.022652,1.73645 -7.847141,10.08919 0.175365,8.35274 8.594508,9.34207 8.594508,9.34207 z"
       style="fill:#cccccc;stroke:none" />
    <circle
       r="17.002188"
       id="path3777-7-2"
       style="fill:#394050;fill-opacity:1;stroke:none"
       cx="111.28864"
       cy="134.38193" />
    <path
       sodipodi:nodetypes="cczcczc"
       inkscape:connector-curvature="0"
       id="path3779-5-7"
       d="m 50.245683,145.03156 61.656247,0 c 0,0 9.06775,-0.78283 8.8748,-9.71559 -0.19285,-8.9327 -9.34187,-10.08914 -9.34187,-10.08914 l -61.936545,0.37356 c 0,0 -8.022652,1.73646 -7.847141,10.08919 0.175365,8.35274 8.594509,9.34207 8.594509,9.34207 z"
       style="fill:#cccccc;stroke:none" />
    <circle
       r="17.002188"
       id="path3777-3-3-0"
       style="fill:#394050;fill-opacity:1;stroke:none"
       cx="111.68074"
       cy="177.96405" />
    <path
       sodipodi:nodetypes="cczcczc"
       inkscape:connector-curvature="0"
       id="path3779-6-5-9"
       d="m 50.637704,188.61365 61.656246,0 c 0,0 9.06775,-0.78283 8.8748,-9.71558 -0.19285,-8.93271 -9.34187,-10.08915 -9.34187,-10.08915 l -61.936543,0.37356 c 0,0 -8.022652,1.73646 -7.847141,10.0892 0.175365,8.35274 8.594508,9.34207 8.594508,9.34207 z"
       style="fill:#cccccc;stroke:none" />
  </g>
  <g
     id="g4188">
    <path
       sodipodi:nodetypes="cccc"
       inkscape:connector-curvature="0"
       id="path3868"
       d="m 196.64821,238.83719 15.41883,-13.34511 -12.63961,-6.52043 z"
       style="fill:#ffccaa;stroke:none" />
    <path
       sodipodi:nodetypes="cccc"
       inkscape:connector-curvature="0"
       id="path3868-3"
       d="m 196.63342,238.83555 4.26644,-3.69265 -3.47747,-1.89886 z"
       style="fill:#394050;stroke:none" />
    <path
       sodipodi:nodetypes="ccccc"
       inkscape:connector-curvature="0"
       id="path3888"
       d="m 199.43687,219.00134 64.97458,-112.35779 12.0586,7.51889 -64.69084,111.47114 z"
       style="fill:#00bbf2;fill-opacity:1;stroke:none" />
    <path
       sodipodi:nodetypes="cczcczccc"
       inkscape:connector-curvature="0"
       id="path3888-6-0"
       d="m 265.28454,105.10784 7.70618,-13.397899 c 0,0 0.42143,-0.924005 0.90318,-1.049561 0.48175,-0.125557 1.50506,0.54991 1.50506,0.54991 l 9.14948,5.622289 c 0,0 0.86286,0.489682 1.00318,0.93368 0.14032,0.443998 -0.29542,1.392423 -0.29542,1.392423 l -7.6648,13.148858 z"
       style="fill:#c83737;fill-opacity:1;stroke:none" />
    <path
       sodipodi:nodetypes="ccccc"
       inkscape:connector-curvature="0"
       id="path3888-6"
       d="m 260.74332,112.94798 8.54741,-14.860468 12.23592,7.518888 -8.47648,14.54128 z"
       style="fill:#ebebeb;fill-opacity:1;stroke:none" />
  </g>
  <path
     inkscape:connector-curvature="0"
     id="path4218"
     d="m 102.06974,114.02931 19.18296,30.26164 2.82536,-1.26402 -7.13783,-37.62245 -3.19718,0.96652 5.79951,29.66674 -15.31662,-24.23892 z"
     style="fill:#333333;fill-opacity:1;fill-rule:evenodd;stroke:#333333;stroke-width:1.25306582;stroke-linecap:butt;stroke-linejoin:miter;stroke-miterlimit:4;stroke-dasharray:none;stroke-opacity:1" />
  <path
     inkscape:connector-curvature="0"
     id="path4235"
     d="m 118.58238,105.4583 9.65943,36.30468 3.19713,-0.37187 2.97414,-37.77109 -3.1972,-0.29743 -2.15619,29.07181 -7.58394,-28.10507 z"
     style="fill:#333333;fill-opacity:1;fill-rule:evenodd;stroke:#333333;stroke-width:1.25306582;stroke-linecap:butt;stroke-linejoin:miter;stroke-miterlimit:4;stroke-dasharray:none;stroke-opacity:1" />
  <path
     style="fill:#333333;fill-opacity:1;fill-rule:evenodd;stroke:#333333;stroke-width:1.25306582;stroke-linecap:butt;stroke-linejoin:miter;stroke-miterlimit:4;stroke-dasharray:none;stroke-opacity:1"
     d="m 192.27834,151.41509 -2.26072,-4.0482 c 11.89951,-8.93777 11.39126,-30.59879 4.78432,-51.418434 -14.82622,1.612191 -23.65882,4.801714 -34.06873,14.300344 l -3.68921,-2.846 c 12.79627,-10.302304 21.80714,-13.033921 40.28153,-15.765539 6.62449,22.449579 10.6202,44.057979 -5.04719,59.777829 z"
     id="path4201-7"
     inkscape:connector-curvature="0"
     sodipodi:nodetypes="ccccccc" />
  <path
     style="fill:#333333;fill-opacity:1;fill-rule:evenodd;stroke:#333333;stroke-width:1.25306582;stroke-linecap:butt;stroke-linejoin:miter;stroke-miterlimit:4;stroke-dasharray:none;stroke-opacity:1"
     d="m 68.136513,151.46157 2.260753,-4.0482 c -11.89953,-8.93777 -11.39128,-30.59878 -4.784351,-51.418646 14.826211,1.612415 23.658844,4.801946 34.068694,14.300556 l 3.689281,-2.84599 C 90.574589,97.146802 81.563722,94.415147 63.089317,91.683529 56.464872,114.13329 52.469132,135.74152 68.136513,151.46157 Z"
     id="path4201"
     inkscape:connector-curvature="0"
     sodipodi:nodetypes="ccccccc" />
  <path
     style="fill:#ffffff;fill-rule:evenodd;stroke:#000000;stroke-width:2.03868318px;stroke-linecap:butt;stroke-linejoin:miter;stroke-opacity:1"
     d="M 129.93108,233.64348 110.27235,232.55132 89.157409,221.62981 68.770587,201.97107 56.028815,177.57969 73.86729,139.71843 l 22.935189,-25.84758 22.571171,-12.74177 12.74173,0 24.39143,8.73721 28.39591,26.57569 14.92611,35.31286 4.00451,9.46535 -11.64958,20.38681 -16.38231,16.74635 -20.38684,12.01363 z"
     id="path3443"
     inkscape:connector-curvature="0" />
  <path
     style="fill:#333333;fill-opacity:1;fill-rule:evenodd;stroke:#333333;stroke-width:1.25306582;stroke-linecap:butt;stroke-linejoin:miter;stroke-miterlimit:4;stroke-dasharray:none;stroke-opacity:1"
     d="m 54.679319,179.79417 4.637749,-0.40894 c 0,0 15.99761,51.97787 71.675762,51.45207 55.67822,-0.52575 70.18877,-51.15464 70.18877,-51.15464 0,0 -27.13765,-75.70322 -71.05547,-76.12646 -43.983051,-0.42365 -70.848528,75.82292 -70.848528,75.82292 l -4.600039,-0.63505 c 0,0 26.601612,-80.032578 75.843637,-79.648905 49.24207,0.383673 75.56769,80.290065 75.56769,80.290065 0,0 -16.85485,55.94918 -75.09606,56.50801 -58.241166,0.55882 -76.313511,-56.09907 -76.313511,-56.09907 z"
     id="path4199"
     inkscape:connector-curvature="0"
     sodipodi:nodetypes="cczcscczczc" />
  <path
     style="fill:#333333;fill-opacity:1;fill-rule:evenodd;stroke:#333333;stroke-width:1.25306582;stroke-linecap:butt;stroke-linejoin:miter;stroke-miterlimit:4;stroke-dasharray:none;stroke-opacity:1"
     d="m 89.480539,168.52597 c 0,0 12.915061,-3.71386 20.018091,3.4409 7.10306,7.15497 3.11973,20.85817 3.11973,20.85817 0,0 -13.552401,3.09697 -20.252651,-4.78093 -6.70023,-7.87765 -3.5967,-18.858 -3.5967,-18.858 l 3.21638,2.20727 c 0,0 -2.94629,8.94778 2.60639,14.99983 5.552691,6.05202 15.316591,3.59885 15.316591,3.59885 0,0 3.29532,-10.59338 -2.37893,-16.11167 -5.67423,-5.51854 -15.462901,-2.27091 -15.462901,-2.27091 z"
     id="path4237"
     inkscape:connector-curvature="0"
     sodipodi:nodetypes="czczcczczcc" />
  <path
     style="fill:#333333;fill-opacity:1;stroke:#333333;stroke-width:3.13517118;stroke-linecap:round;stroke-linejoin:round;stroke-miterlimit:4;stroke-dasharray:none;stroke-dashoffset:50;stroke-opacity:1"
     id="path4239"
     sodipodi:type="arc"
     sodipodi:cx="103.12307"
     sodipodi:cy="177.93529"
     sodipodi:rx="5.5958567"
     sodipodi:ry="5.4066253"
     sodipodi:start="0"
     sodipodi:end="6.2784904"
     sodipodi:open="true"
     d="m 108.71893,177.93529 a 5.5958567,5.4066253 0 0 1 -5.58929,5.40662 5.5958567,5.4066253 0 0 1 -5.602411,-5.39393 5.5958567,5.4066253 0 0 1 5.576141,-5.41928 5.5958567,5.4066253 0 0 1 5.61549,5.3812" />
  <path
     style="fill:#333333;fill-opacity:1;fill-rule:evenodd;stroke:#333333;stroke-width:1.25306582;stroke-linecap:butt;stroke-linejoin:miter;stroke-miterlimit:4;stroke-dasharray:none;stroke-opacity:1"
     d="m 171.40998,168.0432 c 0,0 -12.91506,-3.71386 -20.01813,3.4409 -7.10306,7.15498 -3.11969,20.85799 -3.11969,20.85799 0,0 13.5524,3.09716 20.25265,-4.78053 6.7002,-7.87788 3.59671,-18.85823 3.59671,-18.85823 l -3.21639,2.2071 c 0,0 2.9463,8.94796 -2.60642,15.00023 -5.55268,6.05202 -15.31659,3.59868 -15.31659,3.59868 0,0 -3.29532,-10.59344 2.37892,-16.11171 5.67427,-5.51854 15.46294,-2.27092 15.46294,-2.27092 z"
     id="path4237-7"
     inkscape:connector-curvature="0"
     sodipodi:nodetypes="czczcczczcc" />
  <path
     style="fill:#333333;fill-opacity:1;stroke:#333333;stroke-width:3.13517118;stroke-linecap:round;stroke-linejoin:round;stroke-miterlimit:4;stroke-dasharray:none;stroke-dashoffset:50;stroke-opacity:1"
     id="path4239-2"
     sodipodi:type="arc"
     sodipodi:cx="-157.7675"
     sodipodi:cy="177.45255"
     sodipodi:rx="5.5958567"
     sodipodi:ry="5.4066253"
     sodipodi:start="0"
     sodipodi:end="6.2784904"
     sodipodi:open="true"
     d="m -152.17165,177.45255 a 5.5958567,5.4066253 0 0 1 -5.58928,5.40662 5.5958567,5.4066253 0 0 1 -5.60241,-5.39393 5.5958567,5.4066253 0 0 1 5.57613,-5.41929 5.5958567,5.4066253 0 0 1 5.6155,5.38121"
     transform="scale(-1,1)" />
  <path
     style="fill:#333333;fill-opacity:1;fill-rule:evenodd;stroke:#333333;stroke-width:1.25306582;stroke-linecap:butt;stroke-linejoin:miter;stroke-miterlimit:4;stroke-dasharray:none;stroke-opacity:1"
     d="m 116.99105,202.42745 c 0,0 7.16371,-1.98732 12.75961,-2.00056 5.59596,-0.0218 13.62473,2.05478 13.62473,2.05478 l -9.70494,11.8064 c -1.0265,1.24931 -1.239,0.88767 -1.85846,1.31802 l -0.0218,5.99456 -3.06155,-0.0218 -0.004,-5.96762 c -0.633,-0.44607 -0.9905,-0.26904 -1.89907,-1.3376 z"
     id="path4265"
     inkscape:connector-curvature="0"
     sodipodi:nodetypes="czcccccccc" />
  <path
     style="fill:#333333;fill-opacity:1;fill-rule:evenodd;stroke:#333333;stroke-width:1.25306582;stroke-linecap:butt;stroke-linejoin:miter;stroke-miterlimit:4;stroke-dasharray:none;stroke-opacity:1"
     d="m 106.0044,206.31359 c -0.56996,-0.72803 -1.19175,-0.41244 -1.19175,-0.41244 l -39.784874,30.9103 c 0,0 -0.726747,0.71357 -0.206774,1.41385 0.519749,0.70008 1.506799,0.39242 1.506799,0.39242 l 39.759859,-31.08154 c 0,0 0.48688,-0.49439 -0.083,-1.22259 z"
     id="path4267"
     inkscape:connector-curvature="0"
     sodipodi:nodetypes="zcczccz" />
  <path
     style="fill:#333333;fill-opacity:1;fill-rule:evenodd;stroke:#333333;stroke-width:1.25306582;stroke-linecap:butt;stroke-linejoin:miter;stroke-miterlimit:4;stroke-dasharray:none;stroke-opacity:1"
     d="m 114.44804,207.89214 c -0.56996,-0.72803 -1.19176,-0.41221 -1.19176,-0.41221 l -39.784859,30.90989 c 0,0 -0.726721,0.71373 -0.207147,1.41383 0.519761,0.70028 1.506812,0.39263 1.506812,0.39263 l 39.759824,-31.08155 c 0,0 0.48691,-0.49437 -0.083,-1.22259 z"
     id="path4267-8"
     inkscape:connector-curvature="0"
     sodipodi:nodetypes="zcczccz" />
  <path
     style="fill:#333333;fill-opacity:1;fill-rule:evenodd;stroke:#333333;stroke-width:1.25306582;stroke-linecap:butt;stroke-linejoin:miter;stroke-miterlimit:4;stroke-dasharray:none;stroke-opacity:1"
     d="m 154.1411,206.3458 c 0.56999,-0.72803 1.19179,-0.41225 1.19179,-0.41225 l 39.78486,30.91012 c 0,0 0.72676,0.71354 0.20679,1.41382 -0.51976,0.70029 -1.50685,0.39267 -1.50685,0.39267 l -39.75982,-31.08155 c 0,0 -0.48691,-0.4946 0.083,-1.22281 z"
     id="path4267-1"
     inkscape:connector-curvature="0"
     sodipodi:nodetypes="zcczccz" />
  <path
     style="fill:#333333;fill-opacity:1;fill-rule:evenodd;stroke:#333333;stroke-width:1.25306582;stroke-linecap:butt;stroke-linejoin:miter;stroke-miterlimit:4;stroke-dasharray:none;stroke-opacity:1"
     d="m 145.69749,207.92454 c 0.56992,-0.72802 1.19172,-0.41243 1.19172,-0.41243 l 39.7849,30.91011 c 0,0 0.72675,0.71377 0.20714,1.41383 -0.51975,0.70007 -1.5068,0.39244 -1.5068,0.39244 l -39.75993,-31.08154 c 0,0 -0.48692,-0.4942 0.083,-1.22241 z"
     id="path4267-8-2"
     inkscape:connector-curvature="0"
     sodipodi:nodetypes="zcczccz" />
  <path
     style="fill:#333333;fill-opacity:1;fill-rule:evenodd;stroke:none;stroke-width:1px;stroke-linecap:butt;stroke-linejoin:miter;stroke-opacity:1"
     d="M 70.530688,149.92915 85.461209,127.53337 101.93625,110.54349 88.035409,98.702024 64.095078,93.296157 l -5.663281,32.177853 5.148478,18.01956 z"
     id="path3439"
     inkscape:connector-curvature="0" />
  <path
     style="fill:#333333;fill-opacity:1;fill-rule:evenodd;stroke:none;stroke-width:1px;stroke-linecap:butt;stroke-linejoin:miter;stroke-opacity:1"
     d="m 189.84604,150.95886 -14.93051,-22.39577 -16.47507,-16.98992 13.90084,-11.841428 23.94033,-5.405867 5.66328,32.177815 -5.14844,18.0196 z"
     id="path3439-3"
     inkscape:connector-curvature="0" />
  <path
     style="fill:#333333;fill-opacity:1;fill-rule:evenodd;stroke:none;stroke-width:1px;stroke-linecap:butt;stroke-linejoin:miter;stroke-opacity:1"
     d="m 121.37589,138.99034 -18.02047,-26.75772 11.28554,-6.91696 z"
     id="path4256"
     inkscape:connector-curvature="0" />
  <path
     style="fill:#333333;fill-opacity:1;fill-rule:evenodd;stroke:none;stroke-width:1px;stroke-linecap:butt;stroke-linejoin:miter;stroke-opacity:1"
     d="m 129.90879,135.99518 -8.38422,-31.15155 12.91739,-2.8895 z"
     id="path4256-6"
     inkscape:connector-curvature="0" />
</svg>
